Coordinates
version=1
nRows=26
nColumns=24
inDegrees=yes

Units are S.I. units (second, meters, Newtons, ...)
Angles are in degrees.

endheader
time	pelvis_tilt	pelvis_list	pelvis_rotation	pelvis_tx	pelvis_ty	pelvis_tz	hip_flexion_r	hip_adduction_r	hip_rotation_r	knee_angle_r	ankle_angle_r	subtalar_angle_r	mtp_angle_r	hip_flexion_l	hip_adduction_l	hip_rotation_l	knee_angle_l	ankle_angle_l	subtalar_angle_l	mtp_angle_l	lumbar_extension	lumbar_bending	lumbar_rotation
      1.62500000	     20.00078983	     -5.09976850	      3.59734280	      0.00112970	      0.95228783	      0.29979851	    -29.82845046	      9.46022583	      2.53428514	     -5.52837641	     23.15015096	      3.91567584	     13.60757716	      8.73347849	     -6.38656202	     -9.89987795	    -33.92911609	     19.41269935	      4.36552198	     40.46384745	    -37.26002890	      7.81786400	      4.80927661
      1.63000000	     20.07271696	     -4.99775181	      3.45780454	      0.00768382	      0.95169870	      0.29965915	    -30.44754888	      9.27588490	      2.44557679	     -5.40715226	     23.37988957	      4.22831961	     13.72256464	      8.35338390	     -6.10501772	    -10.20909026	    -31.42213516	     18.65780544	      4.92404081	     40.20475577	    -37.34840329	      7.62464943	      4.89660084
      1.63500000	     20.18327876	     -4.93314106	      3.27850889	      0.01414409	      0.95116495	      0.29952933	    -31.11888661	      9.09978511	      2.47838887	     -5.26035119	     23.53201603	      4.45931145	     13.81634058	      7.89762852	     -5.86475346	    -10.52921931	    -28.88424970	     17.84068510	      5.55891970	     40.03587525	    -37.49023027	      7.44093057	      5.15121329
      1.64000000	     20.27920356	     -4.83350677	      3.15455320	      0.02065346	      0.95051189	      0.29929525	    -31.76151592	      8.91209402	      2.37060957	     -5.12631922	     23.75356671	      4.76041052	     13.91586974	      7.45085427	     -5.56608271	    -10.75728396	    -26.36089215	     16.96344235	      6.18373741	     39.83816134	    -37.60751830	      7.24328386	      5.29134554
      1.64500000	     20.33061299	     -4.77097895	      3.01967279	      0.02731553	      0.94973350	      0.29913908	    -32.33242332	      8.76044517	      2.24488027	     -5.05189926	     23.93295089	      5.11124411	     14.04879227	      7.05921014	     -5.32883219	    -11.04777327	    -23.92522447	     16.05154787	      6.97090711	     39.71107045	    -37.67503397	      7.07972762	      5.41892424
      1.65000000	     20.30138387	     -4.74060565	      2.90983048	      0.03391544	      0.94880450	      0.29878503	    -32.81306013	      8.62973197	      2.18542854	     -4.96905119	     24.16838581	      5.42679956	     14.19421382	      6.75988504	     -5.08672415	    -11.19858518	    -21.51366216	     15.14263040	      7.69161104	     39.64038535	    -37.64775281	      6.96948238	      5.53448590
      1.65500000	     20.28381682	     -4.73168763	      2.76233153	      0.04066935	      0.94790017	      0.29862711	    -33.31103989	      8.50757084	      2.12332360	     -4.89821674	     24.34047261	      5.73689923	     14.36346324	      6.43929599	     -4.89664044	    -11.43287473	    -19.19894082	     14.33945167	      8.50826696	     39.57866790	    -37.62442905	      6.84435910	      5.69506142
      1.66000000	     20.30526210	     -4.73485598	      2.65298978	      0.04726906	      0.94703914	      0.29840082	    -33.83829904	      8.41987920	      2.03394666	     -4.82882695	     24.43677249	      6.01493899	     14.56808894	      6.08630464	     -4.71318270	    -11.57077789	    -16.94550509	     13.56743186	      9.25357339	     39.58876459	    -37.66030523	      6.75604502	      5.86043762
      1.66500000	     20.27128721	     -4.71630153	      2.56817561	      0.05391223	      0.94606607	      0.29811869	    -34.31437951	      8.32102163	      2.00477154	     -4.74939591	     24.58033444	      6.20706506	     14.75843119	      5.79040059	     -4.48971656	    -11.62321506	    -14.77739847	     12.95535775	      9.79571852	     39.52308981	    -37.62533245	      6.66145214	      5.90237239
      1.67000000	     20.28339606	     -4.73420846	      2.53061699	      0.06054985	      0.94512476	      0.29772211	    -34.78506943	      8.26955336	      1.77893450	     -4.77168284	     24.70620901	      6.69346349	     15.10220530	      5.44695459	     -4.30438314	    -11.53822886	    -12.70230944	     12.41602527	     10.19076332	     39.48891785	    -37.63946191	      6.63707619	      6.03516697
      1.67500000	     20.16969114	     -4.78179671	      2.37644578	      0.06720439	      0.94401098	      0.29749372	    -35.10080456	      8.18849326	      1.75433029	     -4.82385886	     24.88700257	      6.96462974	     15.35057747	      5.24261293	     -4.16132487	    -11.61357713	    -10.78657836	     12.00394394	     10.52090464	     39.44030412	    -37.52737364	      6.57241642	      6.26970300
      1.68000000	     20.16867991	     -4.86533650	      2.28803972	      0.07386764	      0.94298624	      0.29720651	    -35.51791554	      8.16836502	      1.59183160	     -4.94298839	     25.02667014	      7.38196508	     15.63178808	      4.96069635	     -4.08177075	    -11.82091219	     -9.06263203	     11.72693985	     11.05361536	     39.44983318	    -37.53233202	      6.57838996	      6.49879025
      1.68500000	     20.05042957	     -4.99377172	      2.22324433	      0.08049445	      0.94186792	      0.29686844	    -35.76226820	      8.19993155	      1.53115602	     -5.12104173	     25.17174246	      7.71610631	     16.00493793	      4.88311501	     -4.06531664	    -11.94682670	     -7.64117387	     11.61261360	     11.54599398	     39.39420572	    -37.42412551	      6.63072384	      6.66598128
      1.69000000	     20.01815609	     -5.07033625	      2.25655119	      0.08718892	      0.94083019	      0.29649548	    -36.16327316	      8.25674498	      1.48514185	     -5.17339897	     25.00719315	      7.72180758	     17.80637562	      4.79340897	     -4.01124159	    -12.09426130	     -6.52734344	     11.58855736	     12.15081347	     38.89827962	    -37.37315155	      6.67443297	      6.65127502
      1.69500000	     19.91306703	     -5.18446916	      2.19060195	      0.09402912	      0.93971504	      0.29616360	    -36.42800078	      8.27171037	      1.41757864	     -5.35659108	     25.10070876	      8.05871302	     17.97392694	      4.79854567	     -4.01159561	    -12.41286290	     -5.64478657	     11.65940476	     12.79252361	     38.93794670	    -37.26015070	      6.70865505	      6.81373451
      1.70000000	     19.77160957	     -5.27915645	      2.28832649	      0.10093315	      0.93848240	      0.29567803	    -36.65013238	      8.37071174	      1.13386892	     -5.54496877	     25.15755446	      8.45487027	     18.19195357	      5.00385365	     -4.02202475	    -12.70767241	     -5.20932341	     11.91288267	     13.71297914	     38.96460237	    -37.08486511	      6.81798129	      6.71919048
      1.70500000	     19.67526305	     -5.38218199	      2.27400451	      0.10773593	      0.93734913	      0.29525719	    -36.85445298	      8.40252755	      1.01774290	     -5.84974337	     25.14368686	      8.74435121	     19.67375803	      5.14671773	     -4.05799469	    -13.11910120	     -4.95143301	     12.22306629	     14.65369823	     38.28167555	    -36.95837290	      6.87090885	      6.85035943
      1.71000000	     19.49959210	     -5.49748933	      2.25564256	      0.11472926	      0.93613616	      0.29500441	    -36.96041821	      8.45889253	      0.96877719	     -6.20845466	     25.22418643	      8.95636138	     19.92828270	      5.40400572	     -4.13742444	    -13.40465265	     -4.93939107	     12.54579599	     15.36748975	     38.29568593	    -36.74287462	      6.91109824	      6.91143780
      1.71500000	     19.37834508	     -5.63210630	      2.26147004	      0.12180997	      0.93499485	      0.29469252	    -37.13370375	      8.53495451	      0.87906940	     -6.56572468	     25.24469786	      9.27498341	     20.14232420	      5.64915452	     -4.25225881	    -13.51403096	     -5.19774281	     12.90889094	     15.80167775	     38.30588550	    -36.57371051	      6.99719452	      6.89864515
      1.72000000	     19.28201660	     -5.68454826	      2.17069702	      0.12907343	      0.93395204	      0.29454321	    -37.34223117	      8.46920986	      0.74598059	     -6.93126519	     25.28447115	      9.68621770	     20.60984973	      5.83161088	     -4.29410898	    -13.58171426	     -5.61465943	     13.29682144	     15.98660470	     38.18824612	    -36.42185005	      6.94247124	      6.98371838
      1.72500000	     19.26162244	     -5.73663059	      2.16313187	      0.13617213	      0.93300451	      0.29430933	    -37.61374604	      8.45336239	      0.74351640	     -7.28823386	     25.05068152	      9.81215796	     22.76637672	      5.96908186	     -4.34106880	    -13.27040090	     -6.20737887	     13.70179692	     15.75176217	     37.42464491	    -36.35981028	      6.92719485	      6.97939189
      1.73000000	     19.26629576	     -5.71513476	      2.00366671	      0.14347690	      0.93217606	      0.29421523	    -37.89721914	      8.25725172	      0.73169265	     -7.73533837	     25.07910997	     10.30038438	     22.96735637	      6.02697894	     -4.33802015	    -13.20573971	     -6.91214302	     13.94601602	     15.71576821	     37.38419878	    -36.32109815	      6.75525117	      7.09393876
      1.73500000	     19.23971887	     -5.61362064	      1.89334434	      0.15092514	      0.93134788	      0.29397850	    -38.09272549	      8.00736029	      0.51810607	     -8.29449995	     25.15929473	     10.89267922	     23.30678455	      6.16163945	     -4.25153953	    -13.08548315	     -7.84422975	     14.23621597	     15.60931071	     37.22075401	    -36.23332914	      6.54184494	      7.07002138
      1.74000000	     19.27950730	     -5.47177730	      1.77860511	      0.15820984	      0.93059750	      0.29372084	    -38.33420228	      7.70725462	      0.35917970	     -8.85954158	     25.02289676	     11.29874591	     25.40092935	      6.21892482	     -4.12455926	    -12.85535024	     -8.87940905	     14.54158333	     15.32791356	     35.76408233	    -36.22506271	      6.29550895	      7.01504911
      1.74500000	     19.26292117	     -5.36510103	      1.63120951	      0.16544936	      0.92985206	      0.29354674	    -38.46703257	      7.41892431	      0.27469789	     -9.53426370	     25.07085650	     11.77448662	     25.61236047	      6.34901815	     -4.05722485	    -12.57477026	    -10.03062819	     14.68534616	     15.07340587	     35.72756396	    -36.16034071	      6.04820897	      7.01967886
      1.75000000	     19.26092457	     -5.27993373	      1.54124134	      0.17281824	      0.92901858	      0.29328159	    -38.58553613	      7.17973089	      0.15640747	    -10.26659152	     25.08769304	     12.24555583	     26.03228410	      6.43246670	     -3.95965890	    -12.19539345	    -11.16785828	     14.75321767	     14.60555050	     35.60646929	    -36.10104129	      5.86099869	      6.95347829
